<svg xmlns="http://www.w3.org/2000/svg" version="1.0" viewBox="0 0 135 54">
  <path d="M3.9 4.1c-6.3 6.7-1.7 16.8 7.7 16.9 3 0 4.8-.7 6.8-2.5 4.9-4.5 2.2-7.7-3.1-3.5-1.4 1.1-3.2 2-3.9 2C9.2 17 6 13.2 6 10.7 6 8.1 8.8 5 11.2 5c.8 0 2.7.9 4.1 2 5.2 4.1 7.9 1.1 3.2-3.5C16.6 1.6 15 1 11.4 1c-3.9 0-5.1.5-7.5 3.1zm25.2-.9C28.6 4.5 27.2 8 26 11c-4.4 10.9-4.3 10-1 10 2 0 3-.5 3-1.5 0-1.1 1.1-1.5 4-1.5s4 .4 4 1.5c0 1 1 1.5 3 1.5h3l-2.1-5.3C38.7 12.9 37 8.5 36 6 33.9.7 30.6-.6 29.1 3.2zM33 9.9c0 .5.3 1.6.6 2.5.4 1.2 0 1.6-1.6 1.6s-2-.4-1.6-1.6c.3-.9.6-2 .6-2.5s.5-.9 1-.9c.6 0 1 .4 1 .9zm12.7-7.1c-1 1-1.7 2.8-1.7 4C44 9 48.3 13 50.6 13c.8 0 1.4.9 1.4 2 0 2.4-2.5 2.7-3.4.4-.9-2.4-5.2-1.4-4.8 1.1.5 2.9 3.1 4.5 7.4 4.5 2.9 0 4.1-.6 5.4-2.5 2.2-3.4.7-6.9-4.1-9.2-1.9-.9-3.5-2.3-3.5-3 0-1.5 2.6-1.8 3.5-.3C53.6 7.8 57 7.1 57 5c0-3.9-8.3-5.5-11.3-2.2zM61 11v10h2.5c2.3 0 2.5-.4 2.5-4 0-3.9.1-4 3.5-4s3.5.1 3.5 4c0 3.6.3 4 2.5 4H78V1h-2.5c-2.2 0-2.5.4-2.5 3.5 0 3.3-.2 3.5-3.5 3.5S66 7.8 66 4.5c0-3.1-.3-3.5-2.5-3.5H61v10zm31.9-6.9c-6.3 6.7-1.7 16.8 7.7 16.9 9.5 0 13.8-11 6.7-17.6-4-3.7-10.6-3.4-14.4.7zm11.5 3.1c.9 1.2 1.6 3 1.6 4 0 2.2-3.4 5.8-5.5 5.8-2.2 0-5.5-3.7-5.5-6.2 0-5.2 6.5-7.7 9.4-3.6zM115 11v10h2.6c2.6 0 2.6-.1 2.2-5.5-.3-3-.2-5.5.1-5.5.3 0 2.1 2.5 3.9 5.5 2.6 4.3 3.9 5.5 5.8 5.5 2.4 0 2.4-.1 2.4-10V1h-2.5c-2.4 0-2.5.3-2.5 6.2v6.3l-4-6.3c-2.7-4.3-4.6-6.2-6-6.2-1.9 0-2 .6-2 10zM2 44v10h5.6c5 0 5.9-.3 8.5-3.1 4.1-4.3 4-9.9 0-14-2.6-2.5-3.7-2.9-8.5-2.9H2v10zm9.8-4.4c2.4 1.7 3 6.2 1 8.2-.7.7-2.2 1.2-3.5 1.2-2.1 0-2.3-.4-2.3-5.5 0-6 .9-6.7 4.8-3.9zM23 44v10h5.5c5.2 0 5.5-.1 5.5-2.5 0-2.1-.5-2.5-3-2.5-2 0-3-.5-3-1.5s1-1.5 3-1.5c2.3 0 3-.5 3-1.9s-.8-2.1-2.7-2.3c-1.7-.2-2.8-.9-2.8-1.8s1.1-1.6 2.8-1.8c1.9-.2 2.7-.9 2.7-2.3 0-1.6-.7-1.9-5.5-1.9H23v10zm16 0v10h5.6c5.2 0 5.5-.1 5.2-2.2-.2-1.7-1.1-2.4-3-2.6-2.8-.3-2.8-.4-2.8-7.8 0-7.2-.1-7.4-2.5-7.4H39v10zm15 0v10h5V34h-5v10zm8.3-8.8c.2.7 1.7 5.2 3.3 10 2.6 8.2 3 8.8 5.5 8.8 2.6 0 2.9-.6 5.8-9.3 1.7-5 3.1-9.5 3.1-10 0-.4-1.1-.7-2.4-.7-2.2 0-2.7.8-4.2 6-.9 3.3-2 6-2.4 6-.4 0-1.4-2.7-2.3-6-1.5-5.4-2-6-4.3-6-1.7 0-2.4.4-2.1 1.2zM83 44v10h5.5c5.2 0 5.5-.1 5.5-2.5 0-2.1-.5-2.5-3-2.5-2 0-3-.5-3-1.5s1-1.5 3-1.5c2.3 0 3-.5 3-1.9s-.8-2.1-2.7-2.3c-1.7-.2-2.8-.9-2.8-1.8s1.1-1.6 2.8-1.8c1.9-.2 2.7-.9 2.7-2.3 0-1.6-.7-1.9-5.5-1.9H83v10zm16 0c0 9.9 0 10 2.4 10 2.1 0 2.5-.6 2.8-3.3l.3-3.2 2 3.2c1.4 2.5 2.6 3.3 4.8 3.3 2.9 0 2.9-.7-.1-4.3-1.4-1.5-1.3-1.9.6-4 2.7-2.9 2.8-7.1.2-9.7-1.5-1.5-3.3-2-7.5-2H99v10zm8.8-5.1c2.1 1.3 1 4.6-1.6 4.9-1.7.3-2.2-.1-2.2-2.1 0-3.5 1.3-4.5 3.8-2.8zM119 40c1.9 3.7 3 7.5 3 10 0 3.6.2 4 2.5 4 2.2 0 2.5-.4 2.5-3.5 0-2 1.4-6.2 3-9.5 1.7-3.3 3-6.2 3-6.5 0-.3-1.1-.5-2.6-.5-1.9 0-2.9.8-4.1 3.7l-1.6 3.8-1.5-3.8c-1.2-3.1-2-3.7-4.4-3.7H116l3 6z"/>
</svg>
