<svg xmlns="http://www.w3.org/2000/svg" viewBox="0 0 45 15">
  <defs/>
  <g fill="none">
    <path fill="#84B740" d="M0 8.644h19.016v6.335H0z"/>
    <path fill="#259BD6" d="M0 0h19.016v6.341H0z"/>
    <path fill="#27292D" d="M38.033 13.692l-.085.017c-.294.056-.4.079-.616.079-.496 0-1.084-.254-1.084-1.451 0-.616.102-1.434 1.028-1.434h.006c.158.011.338.028.677.13l.074.022v2.637zm.152-5.968l-.152.028v2.213l-.136-.039-.04-.011c-.152-.045-.502-.147-.84-.147-1.853 0-2.242 1.4-2.242 2.575 0 1.609.903 2.535 2.478 2.535.667 0 1.158-.068 1.655-.232.457-.147.62-.356.62-.802V7.492c-.44.08-.897.159-1.343.232m5.353 6.007l-.08.023-.282.073a2.943 2.943 0 01-.683.108c-.435 0-.694-.215-.694-.582 0-.237.107-.638.818-.638h.92v1.016zm-.65-3.991c-.57 0-1.157.101-1.885.327l-.475.141.158 1.073.463-.152a5.444 5.444 0 011.542-.26c.203 0 .824 0 .824.672v.293h-.864c-1.575 0-2.303.503-2.303 1.581 0 .92.671 1.474 1.8 1.474.35 0 .836-.068 1.254-.17l.023-.005.022.006.141.022c.44.08.898.158 1.344.243v-3.523c0-1.14-.689-1.722-2.044-1.722m-10.321 3.991l-.079.023-.282.073a2.9 2.9 0 01-.683.108c-.435 0-.695-.215-.695-.582 0-.237.107-.638.813-.638h.92l.006 1.016zm-.644-3.991c-.575 0-1.157.101-1.885.327l-.475.141.158 1.073.463-.152a5.444 5.444 0 011.542-.26c.203 0 .824 0 .824.672v.293h-.864c-1.575 0-2.309.503-2.309 1.581 0 .92.672 1.474 1.807 1.474.35 0 .835-.068 1.253-.17l.023-.005.022.006.136.022c.446.08.898.158 1.344.249v-3.524c.005-1.151-.683-1.727-2.039-1.727m-5.301.01a3.81 3.81 0 00-1.53.34l-.057.028-.05-.04c-.306-.22-.752-.333-1.373-.333-.547 0-1.061.08-1.62.243-.48.147-.666.378-.666.813v4.026h1.501v-3.721l.074-.023c.305-.101.485-.118.66-.118.435 0 .655.231.655.683v3.184h1.48v-3.246c0-.192-.04-.305-.045-.328l-.051-.096.101-.045a1.78 1.78 0 01.734-.152c.3 0 .655.118.655.683v3.184h1.474v-3.33c0-1.18-.632-1.751-1.942-1.751m15.809-5.618c-.22 0-.587-.023-.875-.079l-.085-.017V1.863c0-.18-.034-.293-.04-.31l-.045-.09.096-.04c.023-.011.046-.017.074-.028l.017-.012.101-.034c.017-.005.029-.01.04-.01.333-.091.638-.08.773-.091h.006c.92 0 1.028.818 1.028 1.434-.006 1.197-.599 1.451-1.09 1.451M42.425 0h-.04c-.863 0-1.75.237-2.066.7-.17.226-.265.508-.27.841v2.242c0 .192-.04.265-.046.282l-.05.096h-2.728V2.603h-.005C37.186.96 36.215.056 34.809.056h-1.372c-.057.401-.102.684-.158 1.085h1.366c.717 0 1.095.61 1.095 1.547v1.57l-.096-.052a1.036 1.036 0 00-.322-.045h-2.36c-.045.3-.101.69-.163 1.079h7.255c.248-.051.536-.096.785-.136.367.18 1.05.277 1.519.277 1.575 0 2.597-1.056 2.597-2.682-.006-1.61-.994-2.665-2.53-2.699m-12.72 5.9h.067c1.576 0 2.31-.52 2.31-1.8 0-.921-.672-1.655-1.802-1.655h-1.45c-.435 0-.695-.249-.695-.666 0-.283.107-.633.819-.633h3.173c.067-.412.101-.672.163-1.084h-3.297c-1.536 0-2.31.644-2.31 1.717 0 1.061.673 1.614 1.802 1.614h1.451c.435 0 .694.345.694.706 0 .237-.107.728-.813.728h-.242l-4.647-.01h-.847c-.717 0-1.22-.407-1.22-1.35v-.65c0-.982.39-1.592 1.22-1.592h1.378l.158-1.078h-1.88c-1.406 0-2.378.943-2.411 2.586v.734c.033 1.643 1.005 2.428 2.41 2.428h1.373l2.518.005h2.078z"/>
  </g>
</svg>
